<?xml version="1.0" encoding="UTF-8"?>
<!-- Generator: Adobe Illustrator 22.0.1, SVG Export Plug-In . SVG Version: 6.00 Build 0)  -->
<!DOCTYPE svg PUBLIC "-//W3C//DTD SVG 1.1//EN" "http://www.w3.org/Graphics/SVG/1.1/DTD/svg11.dtd">
<svg version="1.1" id="Layer_1" xmlns="http://www.w3.org/2000/svg" xmlns:xlink="http://www.w3.org/1999/xlink" x="0px" y="0px" viewBox="0 0 500 500" style="enable-background:new 0 0 500 500;" xml:space="preserve">
<style type="text/css">
	.st0{opacity:0.5;}
	.st1{opacity:0.6;}
	.st2{fill:#CAA769;}
</style>
<title>bg</title>
<g id="Expanded" class="st0">
	<g class="st0">
		<g class="st1">
			<rect x="62.2" class="st2" width="0.7" height="500"/>
			<rect x="103.8" class="st2" width="0.7" height="500"/>
			<rect x="20.5" class="st2" width="0.7" height="500"/>
			<rect x="145.5" class="st2" width="0.7" height="500"/>
			<rect x="187.2" class="st2" width="0.7" height="500"/>
			<rect x="228.8" class="st2" width="0.7" height="500"/>
			<rect x="270.5" class="st2" width="0.7" height="500"/>
			<rect x="312.2" class="st2" width="0.7" height="500"/>
			<rect x="353.8" class="st2" width="0.7" height="500"/>
			<rect x="395.5" class="st2" width="0.7" height="500"/>
			<rect x="437.1" class="st2" width="0.7" height="500"/>
			<rect x="478.9" class="st2" width="0.7" height="500"/>
		</g>
		<g class="st1">
			<rect y="62.2" class="st2" width="500" height="0.7"/>
			<rect y="103.8" class="st2" width="500" height="0.7"/>
			<rect y="20.9" class="st2" width="500" height="0.7"/>
			<rect y="145.5" class="st2" width="500" height="0.7"/>
			<rect y="187.2" class="st2" width="500" height="0.7"/>
			<rect y="228.8" class="st2" width="500" height="0.7"/>
			<rect y="270.5" class="st2" width="500" height="0.7"/>
			<rect y="312.2" class="st2" width="500" height="0.7"/>
			<rect y="353.8" class="st2" width="500" height="0.7"/>
			<rect y="395.5" class="st2" width="500" height="0.7"/>
			<rect y="437.1" class="st2" width="500" height="0.7"/>
			<rect y="478.8" class="st2" width="500" height="0.7"/>
		</g>
		<rect x="61.5" y="430.5" class="st2" width="2" height="13.6"/>
		<rect x="55.7" y="436.3" class="st2" width="13.6" height="2"/>
		<rect x="186.5" y="430.5" class="st2" width="2.1" height="13.6"/>
		<rect x="180.7" y="436.3" class="st2" width="13.6" height="2"/>
		<rect x="61.5" y="305.4" class="st2" width="2" height="13.6"/>
		<rect x="55.7" y="311.2" class="st2" width="13.6" height="2"/>
		<rect x="186.5" y="305.4" class="st2" width="2.1" height="13.6"/>
		<rect x="180.7" y="311.2" class="st2" width="13.6" height="2"/>
		<rect x="311.6" y="430.5" class="st2" width="2" height="13.6"/>
		<rect x="305.8" y="436.3" class="st2" width="13.6" height="2"/>
		<rect x="436.6" y="430.5" class="st2" width="2" height="13.6"/>
		<rect x="430.8" y="436.3" class="st2" width="13.6" height="2"/>
		<rect x="311.6" y="305.4" class="st2" width="2" height="13.6"/>
		<rect x="305.8" y="311.2" class="st2" width="13.6" height="2"/>
		<rect x="436.6" y="305.4" class="st2" width="2" height="13.6"/>
		<rect x="430.8" y="311.2" class="st2" width="13.6" height="2"/>
		<rect x="61.5" y="430.2" class="st2" width="2" height="13.6"/>
		<rect x="55.7" y="436" class="st2" width="13.6" height="2"/>
		<rect x="186.5" y="430.2" class="st2" width="2.1" height="13.6"/>
		<rect x="180.7" y="436" class="st2" width="13.6" height="2"/>
		<rect x="61.5" y="305.1" class="st2" width="2" height="13.6"/>
		<rect x="55.7" y="310.9" class="st2" width="13.6" height="2"/>
		<rect x="186.5" y="305.1" class="st2" width="2.1" height="13.6"/>
		<rect x="180.7" y="310.9" class="st2" width="13.6" height="2"/>
		<rect x="311.6" y="430.2" class="st2" width="2" height="13.6"/>
		<rect x="305.8" y="436" class="st2" width="13.6" height="2"/>
		<rect x="436.6" y="430.2" class="st2" width="2" height="13.6"/>
		<rect x="430.8" y="436" class="st2" width="13.6" height="2"/>
		<rect x="311.6" y="305.1" class="st2" width="2" height="13.6"/>
		<rect x="305.8" y="310.9" class="st2" width="13.6" height="2"/>
		<rect x="436.6" y="305.1" class="st2" width="2" height="13.6"/>
		<rect x="430.8" y="310.9" class="st2" width="13.6" height="2"/>
		<rect x="61.5" y="180.1" class="st2" width="2" height="13.6"/>
		<rect x="55.7" y="185.9" class="st2" width="13.6" height="2.1"/>
		<rect x="186.5" y="180.1" class="st2" width="2.1" height="13.6"/>
		<rect x="180.7" y="185.9" class="st2" width="13.6" height="2.1"/>
		<rect x="61.5" y="55" class="st2" width="2" height="13.6"/>
		<rect x="55.7" y="60.8" class="st2" width="13.6" height="2"/>
		<rect x="186.5" y="55" class="st2" width="2.1" height="13.6"/>
		<rect x="180.7" y="60.8" class="st2" width="13.6" height="2"/>
		<rect x="311.6" y="180.1" class="st2" width="2" height="13.6"/>
		<rect x="305.8" y="185.9" class="st2" width="13.6" height="2.1"/>
		<rect x="436.6" y="180.1" class="st2" width="2" height="13.6"/>
		<rect x="430.8" y="185.9" class="st2" width="13.6" height="2.1"/>
		<rect x="311.6" y="55" class="st2" width="2" height="13.6"/>
		<rect x="305.8" y="60.8" class="st2" width="13.6" height="2"/>
		<rect x="436.6" y="55" class="st2" width="2" height="13.6"/>
		<rect x="430.8" y="60.8" class="st2" width="13.6" height="2"/>
	</g>
</g>
</svg>