<svg width="31" height="31" viewBox="0 0 31 31" fill="none" xmlns="http://www.w3.org/2000/svg">
<path d="M15.3 30.6C6.84 30.6 0 23.76 0 15.3C0 6.84 6.84 0 15.3 0C23.76 0 30.6 6.84 30.6 15.3C30.6 23.76 23.76 30.6 15.3 30.6ZM15.3 1.8C7.83 1.8 1.8 7.83 1.8 15.3C1.8 22.77 7.83 28.8 15.3 28.8C22.77 28.8 28.8 22.77 28.8 15.3C28.8 7.83 22.77 1.8 15.3 1.8Z" fill="black"/>
<path d="M7.2002 14.3999H23.4002V16.1999H7.2002V14.3999Z" fill="black"/>
<path d="M14.3994 7.19971H16.1994V23.3997H14.3994V7.19971Z" fill="black"/>
</svg>
