<svg width="25" height="25" viewBox="0 0 35 36" fill="none" xmlns="http://www.w3.org/2000/svg">
<rect y="0.103516" width="35" height="35" rx="5" fill="#0E2144"/>
<path d="M29.167 4.47852C29.9405 4.47852 30.6824 4.78581 31.2294 5.33279C31.7764 5.87977 32.0837 6.62163 32.0837 7.39518V27.8118C32.0837 28.5854 31.7764 29.3273 31.2294 29.8742C30.6824 30.4212 29.9405 30.7285 29.167 30.7285H5.83366C5.06011 30.7285 4.31825 30.4212 3.77126 29.8742C3.22428 29.3273 2.91699 28.5854 2.91699 27.8118V7.39518C2.91699 6.62163 3.22428 5.87977 3.77126 5.33279C4.31825 4.78581 5.06011 4.47852 5.83366 4.47852H29.167ZM29.167 7.39518H5.83366V22.1243L13.118 14.8414C13.2873 14.6721 13.4883 14.5378 13.7095 14.4462C13.9307 14.3545 14.1678 14.3073 14.4072 14.3073C14.6466 14.3073 14.8837 14.3545 15.1049 14.4462C15.3261 14.5378 15.5271 14.6721 15.6964 14.8414L21.6245 20.771L23.4299 18.9656C23.5992 18.7963 23.8002 18.662 24.0214 18.5703C24.2426 18.4787 24.4796 18.4315 24.7191 18.4315C24.9585 18.4315 25.1956 18.4787 25.4168 18.5703C25.638 18.662 25.839 18.7963 26.0082 18.9656L29.167 22.1258V7.39518ZM22.6045 10.3118C23.1847 10.3118 23.7411 10.5423 24.1513 10.9526C24.5615 11.3628 24.792 11.9192 24.792 12.4993C24.792 13.0795 24.5615 13.6359 24.1513 14.0461C23.7411 14.4564 23.1847 14.6868 22.6045 14.6868C22.0243 14.6868 21.4679 14.4564 21.0577 14.0461C20.6475 13.6359 20.417 13.0795 20.417 12.4993C20.417 11.9192 20.6475 11.3628 21.0577 10.9526C21.4679 10.5423 22.0243 10.3118 22.6045 10.3118Z" fill="#F1F4FF"/>
</svg>
