<svg width="40" height="38" viewBox="0 0 49 43" fill="none" xmlns="http://www.w3.org/2000/svg">
<path d="M4.65625 19.4062H46.5312C47.0865 19.4062 47.6191 19.6268 48.0118 20.0195C48.4044 20.4121 48.625 20.9447 48.625 21.5C48.625 22.0553 48.4044 22.5879 48.0118 22.9805C47.6191 23.3732 47.0865 23.5938 46.5312 23.5938H4.65625C4.10095 23.5938 3.5684 23.3732 3.17575 22.9805C2.78309 22.5879 2.5625 22.0553 2.5625 21.5C2.5625 20.9447 2.78309 20.4121 3.17575 20.0195C3.5684 19.6268 4.10095 19.4062 4.65625 19.4062Z" fill="#737373"/>
<path d="M5.5229 21.5002L22.8885 38.8616C23.2816 39.2547 23.5025 39.788 23.5025 40.344C23.5025 40.9 23.2816 41.4332 22.8885 41.8263C22.4953 42.2195 21.9621 42.4404 21.4061 42.4404C20.8501 42.4404 20.3169 42.2195 19.9237 41.8263L1.07996 22.9826C0.884978 22.7881 0.73028 22.557 0.624728 22.3027C0.519176 22.0483 0.464844 21.7756 0.464844 21.5002C0.464844 21.2248 0.519176 20.9521 0.624728 20.6977C0.73028 20.4434 0.884978 20.2123 1.07996 20.0178L19.9237 1.17408C20.3169 0.780928 20.8501 0.560059 21.4061 0.560059C21.9621 0.560059 22.4953 0.780928 22.8885 1.17408C23.2816 1.56723 23.5025 2.10046 23.5025 2.65645C23.5025 3.21245 23.2816 3.74568 22.8885 4.13883L5.5229 21.5002Z" fill="#737373"/>
</svg>
