<svg width="25" height="25" viewBox="0 0 34 35" fill="none" xmlns="http://www.w3.org/2000/svg">
<rect y="0.96582" width="34" height="34" rx="5" fill="#0E2144"/>
<path d="M21.7143 29.25H19.1429C18.4609 29.25 17.8068 28.9603 17.3246 28.4445C16.8423 27.9288 16.5714 27.2293 16.5714 26.5C16.5714 25.7707 16.8423 25.0712 17.3246 24.5555C17.8068 24.0397 18.4609 23.75 19.1429 23.75H21.7143V21H19.1429C17.7789 21 16.4708 21.5795 15.5063 22.6109C14.5418 23.6424 14 25.0413 14 26.5C14 27.9587 14.5418 29.3576 15.5063 30.3891C16.4708 31.4205 17.7789 32 19.1429 32H21.7143V29.25ZM32 26.5C32 27.9587 31.4582 29.3576 30.4937 30.3891C29.5292 31.4205 28.2211 32 26.8571 32H24.2857V29.25H26.8571C27.5391 29.25 28.1932 28.9603 28.6754 28.4445C29.1577 27.9288 29.4286 27.2293 29.4286 26.5C29.4286 25.7707 29.1577 25.0712 28.6754 24.5555C28.1932 24.0397 27.5391 23.75 26.8571 23.75H24.2857V21H26.8571C28.2211 21 29.5292 21.5795 30.4937 22.6109C31.4582 23.6424 32 25.0413 32 26.5Z" fill="#F1F4FF"/>
<path d="M21.6667 25.5H27V28H21.6667V25.5ZM12.3333 26.75C12.3359 26.3309 12.3761 25.9128 12.4533 25.5H7V23.75C7 21.2501 12.3333 19.8751 15 19.8751C15.6035 19.8824 16.2054 19.9347 16.8 20.0313C17.8976 19.5186 19.107 19.2512 20.3333 19.2501H27V8.0002C26.9979 7.33778 26.7163 6.70305 26.2166 6.23464C25.717 5.76623 25.0399 5.50221 24.3333 5.50023H18.76C18.487 4.76953 17.9785 4.13644 17.3049 3.68852C16.6313 3.2406 15.8258 3 15 3C14.1742 3 13.3687 3.2406 12.6951 3.68852C12.0215 4.13644 11.513 4.76953 11.24 5.50023H5.66667C4.96007 5.50221 4.28302 5.76623 3.78338 6.23464C3.28374 6.70305 3.00211 7.33778 3 8.0002L3 25.5C3.00211 26.1625 3.28374 26.7972 3.78338 27.2656C4.28302 27.734 4.96007 27.998 5.66667 28H12.4533C12.3761 27.5872 12.3359 27.1691 12.3333 26.75ZM15 5.50023C15.2637 5.50023 15.5215 5.57354 15.7408 5.71089C15.96 5.84824 16.1309 6.04346 16.2318 6.27187C16.3328 6.50027 16.3592 6.7516 16.3077 6.99408C16.2563 7.23655 16.1293 7.45928 15.9428 7.63409C15.7563 7.8089 15.5188 7.92795 15.2601 7.97618C15.0015 8.02442 14.7334 7.99966 14.4898 7.90505C14.2461 7.81044 14.0379 7.65023 13.8914 7.44467C13.7449 7.23911 13.6667 6.99744 13.6667 6.75022C13.6677 6.419 13.8085 6.10164 14.0584 5.86743C14.3082 5.63323 14.6467 5.50122 15 5.50023ZM15 10.5002C15.7911 10.5002 16.5645 10.7201 17.2223 11.1322C17.8801 11.5442 18.3928 12.1299 18.6955 12.8151C18.9983 13.5003 19.0775 14.2543 18.9231 14.9817C18.7688 15.7091 18.3878 16.3773 17.8284 16.9018C17.269 17.4262 16.5563 17.7834 15.7804 17.928C15.0044 18.0727 14.2002 17.9985 13.4693 17.7147C12.7384 17.4308 12.1136 16.9502 11.6741 16.3335C11.2346 15.7168 11 14.9918 11 14.2501C10.9993 13.7575 11.1023 13.2696 11.3031 12.8143C11.5038 12.359 11.7984 11.9454 12.17 11.597C12.5416 11.2487 12.9828 10.9725 13.4684 10.7843C13.9541 10.5961 14.4745 10.4995 15 10.5002Z" fill="#F1F4FF"/>
</svg>
