<svg width="25" height="25" viewBox="0 0 34 35" fill="none" xmlns="http://www.w3.org/2000/svg">
<rect y="0.103516" width="34" height="34" rx="5" fill="#0E2144"/>
<path d="M17 0.103516C14.7769 0.103516 13.0769 1.80352 13.0769 4.02659V11.8727C13.0769 14.0958 14.7769 15.7958 17 15.7958H24.8462L30.0769 21.0266V15.7958C32.3 15.7958 34 14.0958 34 11.8727V4.02659C34 1.80352 32.3 0.103516 30.0769 0.103516H17ZM22.4766 4.02659H24.7232L26.9306 11.8727H24.9691L24.4368 9.91121H22.4753L21.9862 11.8727H20.2692L22.4766 4.02659ZM23.5385 5.33428C23.4077 5.85736 23.2612 6.49552 23.1292 6.88782L22.763 8.60352H24.3152L23.9465 6.88652C23.6862 6.49552 23.5385 5.85736 23.5385 5.33428ZM3.92308 13.1804C1.7 13.1804 0 14.8804 0 17.1035V24.9497C0 27.1727 1.7 28.8727 3.92308 28.8727V34.1035L9.15385 28.8727H17C19.2231 28.8727 20.9231 27.1727 20.9231 24.9497V17.1035H17C14.5154 17.1035 12.546 15.4035 11.8922 13.1804H3.92308ZM9.93062 16.9806C12.1537 16.9806 13.1998 18.8114 13.1998 20.9037C13.1998 22.7344 12.5708 23.8957 11.5247 24.4187C12.0478 24.6803 12.6676 24.8189 13.3215 24.9497L12.8324 26.2574C11.917 25.9958 10.9676 25.5878 10.0522 25.1942C9.92146 25.0634 9.69261 25.0726 9.56185 25.0726C7.99261 24.9418 6.53846 23.642 6.53846 21.0266C6.53846 18.8035 7.83831 16.9806 9.93062 16.9806ZM9.93062 18.4112C8.88446 18.4112 8.37708 19.5881 8.37708 21.0266C8.37708 22.5958 8.88446 23.642 9.93062 23.642C10.9768 23.642 11.5234 22.4651 11.5234 21.0266C11.5234 19.5881 10.9768 18.4112 9.93062 18.4112Z" fill="white"/>
</svg>
