<svg width="25" height="25" viewBox="0 0 34 35" fill="none" xmlns="http://www.w3.org/2000/svg">
<rect y="0.103516" width="34" height="34" rx="5" fill="#0E2144"/>
<path d="M6.80039 5.20361H27.2004C28.1354 5.20361 28.9344 5.54361 29.5974 6.20661C30.2604 6.86961 30.6004 7.66861 30.6004 8.60361V20.5036C30.6004 21.4386 30.2604 22.2376 29.5974 22.9006C28.9344 23.5636 28.1354 23.9036 27.2004 23.9036H25.5004L17.0004 32.4036V23.9036H6.80039C5.86539 23.9036 5.06639 23.5636 4.40339 22.9006C3.74039 22.2376 3.40039 21.4386 3.40039 20.5036V8.60361C3.40039 7.66861 3.74039 6.86961 4.40339 6.20661C5.06639 5.54361 5.86539 5.20361 6.80039 5.20361ZM25.5004 8.60361H6.80039V10.3036H25.5004V8.60361ZM27.2004 13.7036H6.80039V15.4036H27.2004V13.7036ZM22.1004 18.8036H6.80039V20.5036H22.1004V18.8036Z" fill="white"/>
</svg>
