<svg width="25" height="25" viewBox="0 0 34 35" fill="none" xmlns="http://www.w3.org/2000/svg">
<rect y="0.103516" width="34" height="34" rx="5" fill="#0E2144"/>
<path fill-rule="evenodd" clip-rule="evenodd" d="M10.663 3.86737C12.4337 3.41115 14.2961 3.45332 16.0443 3.98923C17.7926 4.52514 19.3587 5.53393 20.5695 6.90412C21.7804 8.27432 22.5888 9.95258 22.9056 11.7535C23.2224 13.5544 23.0352 15.4078 22.3646 17.109L28.8799 22.624C29.374 23.0416 29.7761 23.5572 30.0607 24.1382C30.3453 24.7192 30.5062 25.3529 30.5332 25.9993C30.5603 26.6456 30.4529 27.2906 30.2178 27.8933C29.9828 28.496 29.6252 29.0434 29.1677 29.5008C28.7102 29.9582 28.1627 30.3157 27.56 30.5506C26.9572 30.7856 26.3122 30.8928 25.6658 30.8656C25.0195 30.8384 24.3858 30.6774 23.8049 30.3927C23.2239 30.1079 22.7084 29.7058 22.291 29.2115L16.7787 22.6991C15.0774 23.3708 13.2234 23.5589 11.4218 23.2426C9.62021 22.9263 7.94118 22.1179 6.57035 20.9069C5.19951 19.6959 4.19028 18.1293 3.65422 16.3805C3.11817 14.6317 3.07618 12.7687 3.53289 10.9975C3.59729 10.7486 3.72754 10.5217 3.90997 10.3405C4.09239 10.1594 4.32024 10.0308 4.56956 9.96815C4.81888 9.90553 5.08047 9.91124 5.32683 9.98467C5.57319 10.0581 5.79521 10.1965 5.96956 10.3855L10.2833 15.0704L13.5374 13.8733L14.7373 10.615L10.0496 6.30829C9.85952 6.134 9.72012 5.91159 9.64608 5.66458C9.57205 5.41757 9.56615 5.15515 9.629 4.90506C9.69185 4.65498 9.82111 4.42652 10.0031 4.24386C10.1851 4.0612 10.4131 3.93112 10.663 3.86737Z" fill="white"/>
</svg>
