<svg width="25" height="25" viewBox="0 0 34 35" fill="none" xmlns="http://www.w3.org/2000/svg">
<rect y="0.103516" width="34" height="34" rx="5" fill="#0E2144"/>
<path d="M17.0003 17.1034C15.442 17.1034 14.108 16.5485 12.9982 15.4388C11.8885 14.329 11.3337 12.995 11.3337 11.4367C11.3337 9.87835 11.8885 8.54433 12.9982 7.4346C14.108 6.32488 15.442 5.77002 17.0003 5.77002C18.5587 5.77002 19.8927 6.32488 21.0024 7.4346C22.1121 8.54433 22.667 9.87835 22.667 11.4367C22.667 12.995 22.1121 14.329 21.0024 15.4388C19.8927 16.5485 18.5587 17.1034 17.0003 17.1034ZM5.66699 28.4367V24.47C5.66699 23.6672 5.87383 22.9292 6.28749 22.2558C6.70116 21.5824 7.24988 21.0691 7.93366 20.7159C9.39755 19.9839 10.885 19.4347 12.3962 19.0683C13.9073 18.7018 15.442 18.5191 17.0003 18.52C18.5587 18.52 20.0934 18.7032 21.6045 19.0697C23.1156 19.4361 24.6031 19.9849 26.067 20.7159C26.7517 21.07 27.3009 21.5838 27.7146 22.2572C28.1282 22.9306 28.3346 23.6682 28.3337 24.47V28.4367H5.66699Z" fill="white"/>
</svg>
